<svg width="339" height="339" viewBox="0 0 339 339" fill="none" xmlns="http://www.w3.org/2000/svg">
<rect opacity="0.1" x="30" y="35" width="138.825" height="11.8377" rx="5.91887" fill="#0A071B" fill-opacity="0.7"/>
<rect opacity="0.1" x="30" y="61.904" width="77.4834" height="11.8377" rx="5.91887" fill="#0A071B" fill-opacity="0.7"/>
<rect opacity="0.1" x="30" y="164" width="138.825" height="11.8377" rx="5.91887" fill="#0A071B" fill-opacity="0.7"/>
<rect opacity="0.1" x="30" y="190.904" width="77.4834" height="11.8377" rx="5.91887" fill="#0A071B" fill-opacity="0.7"/>
<rect opacity="0.1" x="30" y="112" width="138.825" height="11.8377" rx="5.91887" fill="#0A071B" fill-opacity="0.7"/>
<rect opacity="0.1" x="30" y="138.904" width="77.4834" height="11.8377" rx="5.91887" fill="#0A071B" fill-opacity="0.7"/>
<rect opacity="0.1" x="30" y="241" width="138.825" height="11.8377" rx="5.91887" fill="#0A071B" fill-opacity="0.7"/>
<rect opacity="0.1" x="30" y="267.904" width="77.4834" height="11.8377" rx="5.91887" fill="#0A071B" fill-opacity="0.7"/>
<rect opacity="0.1" x="118" y="62" width="138.825" height="11.8377" rx="5.91887" fill="#0A071B" fill-opacity="0.7"/>
<rect opacity="0.1" x="118" y="88.904" width="77.4834" height="11.8377" rx="5.91887" fill="#0A071B" fill-opacity="0.7"/>
<rect opacity="0.1" x="118" y="191" width="138.825" height="11.8377" rx="5.91887" fill="#0A071B" fill-opacity="0.7"/>
<rect opacity="0.1" x="31" y="218" width="77.4834" height="11.8377" rx="5.91887" fill="#0A071B" fill-opacity="0.7"/>
<rect opacity="0.1" x="118" y="139" width="138.825" height="11.8377" rx="5.91887" fill="#0A071B" fill-opacity="0.7"/>
<rect opacity="0.1" x="34" y="87" width="77.4834" height="11.8377" rx="5.91887" fill="#0A071B" fill-opacity="0.7"/>
</svg>
